# xmcd
#
# Track frame offsets: 
#        182
#        12850
#        23582
#        37807
#        52190
#        71082
#        85582
#        98582
#        110082
#        120895
#        138682
#        152595
#        161545
#        177245
#        192245
#        202970
#
# Disc length: 2818 seconds
#
# Revision: 0
# Processed by: cddbd v1.5.2PL0 Copyright (c) Steve Scherf et al.
# Submitted via: ExactAudioCopy v1.0b1
#
DISCID=c60b0010
DTITLE=Various Artist - Body and Soul
DYEAR=1989
DGENRE=Soul
TTITLE0=Joe Simon - My Special Prayer
TTITLE1=Patti LaBelle - Island of Unbroken Hearts
TTITLE2=Wilson Pickett - It's Too Late
TTITLE3=Goombay Dance Band - Extasy
TTITLE4=Nina Simone - To Be Young, Gifted And Black
TTITLE5=B. J. Thomas - I Just Can't Help Believin'
TTITLE6=Desmond Dekker - Roots Rock
TTITLE7=Little Anthony (+ The Imperials) - (I Think I'm) Going Out Of 
TTITLE7=My Head
TTITLE8=Sam and Dave - Sweet Soul Music
TTITLE9=Lou Gramm - I Wish Today Was Yesterday
TTITLE10=Commodores - Rise Up
TTITLE11=Al Jarreau - Ain't No Sunshine
TTITLE12=Le Patterson Singers - Oh Happy Day
TTITLE13=Detroit Emeralds - Feel The Need In Me
TTITLE14=Sly and The Family Stone - Seventh Son
TTITLE15=Joe Tex - Yum, Yum
EXTD=
EXTT0=
EXTT1=
EXTT2=
EXTT3=
EXTT4=
EXTT5=
EXTT6=
EXTT7=
EXTT8=
EXTT9=
EXTT10=
EXTT11=
EXTT12=
EXTT13=
EXTT14=
EXTT15=
PLAYORDER=
